<svg xmlns="http://www.w3.org/2000/svg" width="1311.359" height="717.417" viewBox="0 0 1311.359 717.417"><defs><style>.a{fill:#ffe1fb;}.b{fill:#ffc135;}.c{fill:#3b2d51;}.d{fill:#732c84;}.e{fill:#ab56bf;}.f{fill:#ddcba6;}.g{fill:#bf63d6;}.h{fill:#efe3ca;}.i{opacity:0.45;}.j{fill:#fff;}.k{fill:#c94343;opacity:0.6;}.l{fill:#964532;}.m{fill:#7f3425;}.n{fill:#ffb94a;}.o{fill:#db2828;}.p{fill:#ed4848;}.q{fill:#ffe9ca;}.r{fill:#6d2d4a;}.s{fill:#934769;}.t{fill:#ff9566;}.u{fill:#ffb882;}.v{fill:#eaddbe;}.w{fill:#f4e9d3;}.x{fill:#d8c091;}.y{fill:#7c3552;}.z{fill:#dbc7a1;}.aa{fill:#e0d0b1;}.ab{fill:#ff9a3e;}.ac{fill:#ed8129;}.ad{fill:#f4e9d4;}.ae{opacity:0.39;}.af{fill:#5e85bc;}.ag{fill:#4e75a5;}.ah{fill:#749dce;}.ai{fill:#db5b3e;}.aj{fill:#66423b;}.ak{fill:#7c4343;}.al{fill:#ea7b59;}.am{fill:#491d2e;}.an{fill:#ffebeb;}.ao{fill:#ef8f6f;}.ap{fill:#8b54b2;}.aq{fill:#634c84;}.ar{fill:#e2d5af;}.as{fill:#f7f0da;}.at{fill:#4c396b;}.au{fill:#f24c5c;}.av{fill:#d63444;}.aw{fill:#b72036;}.ax{fill:#6d3e4c;}.ay{fill:#592e3c;}.az{fill:#ff9239;}.ba{fill:#ff6d2c;}.bb{fill:#7a4939;}.bc{fill:#603428;}.bd{fill:#dbccad;}.be{fill:#d1bb93;}.bf{fill:#ba9e70;}.bg{fill:#f9f0e1;}.bh{fill:#f2e9ce;}.bi{fill:#503d70;}.bj{fill:#4f3131;}.bk{fill:#b7bf47;}.bl{fill:#999b32;}.bm{opacity:0.58;}.bn,.bp{fill:#fff9f1;}.bo{fill:#a5a53a;}.bp{opacity:0.42;}.bq{fill:#602540;}.br{fill:#d8c5a0;}.bs{fill:#dbc8a2;}.bt{fill:#d3bb92;}.bu{fill:#f4e8ce;}.bv{fill:#ce5230;}.bw{fill:#ceb995;}.bx{fill:#ef7335;}.by{fill:#4b6f9b;}.bz{fill:#f4e6c9;}.ca{fill:#633d37;}.cb{fill:#ffc69f;}.cc{fill:#472922;}.cd{fill:#fff6e3;}</style></defs><g transform="translate(-3.8 -27.5)"><g transform="translate(3.8 27.5)"><path class="a" d="M25.856,145.413l-7.5-6.713L17.3,139.885l7.372,6.845Z" transform="translate(0.471 7.679)"/><path class="a" d="M166.954,275.685,151.685,261.6l-1.185,1.316L165.77,277Z" transform="translate(42.61 46.56)"/><path class="a" d="M120.555,232.885,105.285,218.8l-1.185,1.185,15.27,14.085Z" transform="translate(27.931 33.02)"/><path class="a" d="M143.755,254.285,128.485,240.2l-1.185,1.316L142.57,255.6Z" transform="translate(35.271 39.79)"/><path class="a" d="M173.7,284.316,189.1,298.4l1.053-1.316L174.885,283Z" transform="translate(49.95 53.33)"/><path class="a" d="M197,305.716,212.27,319.8l1.053-1.185L198.053,304.4Z" transform="translate(57.321 60.1)"/><path class="a" d="M57.7,177.185,72.97,191.27l1.185-1.185L58.885,176Z" transform="translate(13.252 19.48)"/><path class="a" d="M97.355,211.485,82.085,197.4,80.9,198.585,96.17,212.67Z" transform="translate(20.591 26.25)"/><path class="a" d="M34.5,155.785,49.77,169.87l1.185-1.185L35.685,154.6Z" transform="translate(5.912 12.709)"/><path class="a" d="M228.1,332.219l-6.845-6.319-1.053,1.185,7.9,7.24,8.425-6.45-.921-1.448Z" transform="translate(64.66 66.902)"/><path class="a" d="M243.6,320.179l1.053,1.316,15.533-11.979-1.053-1.316Z" transform="translate(72.063 61.302)"/><path class="a" d="M314.3,265.647l.921,1.448,15.533-11.979-.921-1.316Z" transform="translate(94.43 44.092)"/><path class="a" d="M290.7,283.879l1.053,1.316,15.533-11.979-1.053-1.316Z" transform="translate(86.964 49.819)"/><path class="a" d="M401.486,200.716l-1.053-1.316L384.9,211.247l1.053,1.316Z" transform="translate(116.765 26.882)"/><path class="a" d="M267.2,301.947l.921,1.448,15.533-11.979-.921-1.316Z" transform="translate(79.529 55.576)"/><path class="a" d="M354.386,237.048l-1.053-1.448L337.8,247.579l1.053,1.316Z" transform="translate(101.865 38.335)"/><path class="a" d="M424.033,181.2,408.5,193.179l1.053,1.316,15.4-11.979Z" transform="translate(124.231 21.125)"/><path class="a" d="M361.4,229.479l1.053,1.316,15.4-11.979-.921-1.316Z" transform="translate(109.331 32.609)"/><path class="a" d="M432,173.619l1.053,1.448,7.635-5.924,9.083,3.028.527-1.58-10-3.291Z" transform="translate(131.666 16.727)"/><path class="a" d="M480.309,181.513,460.826,174.8l-.527,1.711,19.482,6.582Z" transform="translate(140.619 19.1)"/><path class="a" d="M489.9,186.48l19.614,6.582.527-1.58L490.427,184.9Z" transform="translate(149.983 22.295)"/><path class="a" d="M569.34,211.613,549.727,204.9l-.526,1.711,19.614,6.582Z" transform="translate(168.743 28.622)"/><path class="a" d="M519.6,196.48l19.482,6.582.526-1.58L520.126,194.9Z" transform="translate(159.379 25.459)"/><path class="a" d="M588.378,218.945l-8.951-3.028-.526,1.58,10,3.291,7.24-7.5-1.185-1.185Z" transform="translate(178.139 30.9)"/><path class="a" d="M675.727,127.6,662.3,141.422l1.185,1.185,13.427-13.822Z" transform="translate(204.524 4.168)"/><path class="a" d="M736.727,64.2,723.3,78.153l1.185,1.185,13.427-13.953Z" transform="translate(223.822 -15.89)"/><path class="a" d="M757,43.1,743.7,56.922l1.185,1.185,13.3-13.822Z" transform="translate(230.275 -22.565)"/><path class="a" d="M703,99.253l1.185,1.185,13.427-13.953L716.427,85.3Z" transform="translate(217.399 -9.214)"/><path class="a" d="M765.185,35.267l7.5-7.767H770.45L764,34.082Z" transform="translate(236.698 -27.5)"/><path class="a" d="M642,162.653l1.185,1.053,13.427-13.822-1.185-1.185Z" transform="translate(198.101 10.843)"/><path class="a" d="M682.7,120.353l1.185,1.185,13.3-13.953L696,106.4Z" transform="translate(210.977 -2.539)"/><path class="a" d="M621.6,183.753l1.185,1.185,13.427-13.953-1.185-1.185Z" transform="translate(191.648 17.518)"/><path class="a" d="M615.912,192.085l-1.185-1.185L601.3,204.853l1.185,1.185Z" transform="translate(185.226 24.193)"/><path class="a" d="M986.881,81.611,970.953,69.5,969.9,70.816l16.06,12.111Z" transform="translate(301.836 -14.213)"/><path class="a" d="M921.4,34.016l15.928,12.111,1.053-1.316L922.453,32.7Z" transform="translate(286.493 -25.855)"/><path class="a" d="M994.2,89.216l7.635,5.792V92.9l-6.582-5Z" transform="translate(309.524 -8.392)"/><path class="a" d="M945.7,52.416l15.928,12.111,1.053-1.316L946.621,51.1Z" transform="translate(294.18 -20.034)"/><path class="a" d="M959.4,423.526l6.582,18.561,1.448-.658L960.98,423Z" transform="translate(298.514 97.621)"/><path class="a" d="M979.2,479.758l6.582,18.429,1.448-.527L980.78,479.1Z" transform="translate(304.778 115.369)"/><path class="a" d="M969.3,451.627l6.582,18.429,1.448-.526L970.88,451.1Z" transform="translate(301.646 106.51)"/><path class="a" d="M1000.316,539.481V535.4l-1.316.395Z" transform="translate(311.042 133.18)"/><path class="a" d="M989.1,507.858l6.582,18.429,1.58-.527L990.68,507.2Z" transform="translate(307.91 124.258)"/><path class="a" d="M949.5,395.427l6.582,18.561,1.448-.658L951.08,394.9Z" transform="translate(295.382 88.731)"/><path class="a" d="M935,374.68l.263,1.58,9.215-1.316,3.159,8.951,1.448-.527L945.531,373.1Z" transform="translate(290.795 81.834)"/><path class="a" d="M634.5,418l.263,1.58,19.745-2.764-.132-1.711Z" transform="translate(195.729 95.121)"/><path class="a" d="M694.6,409.4l.263,1.58,19.745-2.764-.263-1.711Z" transform="translate(214.742 92.401)"/><path class="a" d="M724.7,405.1l.132,1.58,19.877-2.764-.263-1.711Z" transform="translate(224.264 91.04)"/><path class="a" d="M664.6,413.7l.263,1.58,19.745-2.764-.263-1.711Z" transform="translate(205.251 93.761)"/><path class="a" d="M754.7,400.8l.263,1.58,19.745-2.764-.263-1.711Z" transform="translate(233.755 89.68)"/><path class="a" d="M784.8,396.5l.132,1.58,19.877-2.764-.263-1.711Z" transform="translate(243.278 88.32)"/><path class="a" d="M874.9,383.6l.263,1.58,19.745-2.764-.263-1.711Z" transform="translate(271.782 84.239)"/><path class="a" d="M905,379.3l.132,1.58,19.877-2.764-.263-1.711Z" transform="translate(281.304 82.878)"/><path class="a" d="M814.8,392.2l.263,1.58,19.745-2.764-.263-1.711Z" transform="translate(252.769 86.959)"/><path class="a" d="M844.9,387.9l.132,1.58,19.877-2.764L864.645,385Z" transform="translate(262.291 85.599)"/><path class="a" d="M612.744,420.848l-4.344,9.609,1.448.79,3.949-8.82,9.478-1.316-.263-1.711Z" transform="translate(187.472 96.482)"/><path class="a" d="M558.2,543.7l1.448.79,8.293-18.429-1.58-.658Z" transform="translate(171.59 130.016)"/><path class="a" d="M583.3,488.029l1.448.658,8.293-18.3-1.58-.79Z" transform="translate(179.531 112.363)"/><path class="a" d="M570.7,515.929l1.58.658,8.161-18.429-1.448-.658Z" transform="translate(175.545 121.19)"/><path class="a" d="M545.6,571.6l1.58.658,8.161-18.3-1.448-.658Z" transform="translate(167.604 138.843)"/><path class="a" d="M595.8,460.1l1.58.658,8.161-18.3-1.448-.658Z" transform="translate(183.486 103.568)"/><path class="a" d="M460.3,430.863l3.028,19.219,1.711-.263L462.011,430.6Z" transform="translate(140.619 100.025)"/><path class="a" d="M474.2,518.463l3.028,19.219,1.58-.263L475.78,518.2Z" transform="translate(145.016 127.738)"/><path class="a" d="M464.9,460.063l3.028,19.219,1.711-.263L466.611,459.8Z" transform="translate(142.074 109.263)"/><path class="a" d="M469.5,489.263l3.159,19.219,1.58-.263L471.211,489Z" transform="translate(143.529 118.5)"/><path class="a" d="M478.8,547.663l3.028,19.219,1.711-.263L480.38,547.4Z" transform="translate(146.471 136.976)"/><path class="a" d="M449.932,407.5l-.132,1.711,9.346.395,1.448,9.346,1.58-.263-1.58-10.794Z" transform="translate(137.297 92.717)"/><path class="a" d="M417.2,407.911l21.457.79.132-1.58-21.457-.921Z" transform="translate(126.984 92.306)"/><path class="a" d="M384.6,406.611l21.457.79.132-1.58-21.457-.922Z" transform="translate(116.67 91.895)"/><path class="a" d="M358.7,414.694l1.711.263,1.711-9.215,9.215.263.132-1.58-10.794-.527Z" transform="translate(108.476 91.578)"/><path class="a" d="M332.686,557.4,329,577.277h1.711l3.686-19.614Z" transform="translate(99.08 140.14)"/><path class="a" d="M352.8,449.393l1.58.395,3.949-21.325-1.711-.263Z" transform="translate(106.61 99.266)"/><path class="a" d="M334.8,546.293l1.58.395,3.949-21.325-1.58-.263Z" transform="translate(100.915 129.921)"/><path class="a" d="M346.8,481.693l1.58.395,3.949-21.325-1.58-.263Z" transform="translate(104.712 109.484)"/><path class="a" d="M340.8,513.993l1.58.395,3.949-21.325-1.58-.263Z" transform="translate(102.814 119.703)"/><path class="a" d="M187.1,526.116l16.454,13.032,1.053-1.316L188.021,524.8Z" transform="translate(54.189 129.826)"/><path class="a" d="M161.9,506.116l16.586,13.164,1.053-1.316L162.953,504.8Z" transform="translate(46.217 123.499)"/><path class="a" d="M212.2,546.016l16.586,13.164.921-1.316L213.253,544.7Z" transform="translate(62.13 136.122)"/><path class="a" d="M136.8,486.216l16.586,13.164.921-1.316L137.853,484.9Z" transform="translate(38.276 117.203)"/><path class="a" d="M237.3,565.916,248.752,575h2.633l-13.032-10.4Z" transform="translate(70.07 142.417)"/><path class="a" d="M111.7,466.316l16.454,13.164,1.053-1.448L112.753,465Z" transform="translate(30.335 110.908)"/><path class="a" d="M88.5,458.72l1.316.921,5.529-7.372,7.108,5.66,1.053-1.316L94.95,449.9Z" transform="translate(22.996 106.131)"/><path class="a" d="M52.3,510.123l1.316.921L65.6,494.721l-1.448-.921Z" transform="translate(11.543 120.019)"/><path class="a" d="M70.4,485.323l1.316.921L83.7,469.921,82.379,469Z" transform="translate(17.27 112.173)"/><path class="a" d="M34.2,534.923l1.316.921,11.847-16.323-1.316-.922Z" transform="translate(5.817 127.865)"/><path class="a" d="M8.012,568.2,3.8,573.86H5.906l3.423-4.739Z" transform="translate(-3.8 143.556)"/><path class="a" d="M16.1,559.723l1.316.922,11.847-16.323-1.316-.921Z" transform="translate(0.091 135.71)"/><g transform="translate(2.106 131.768)"><path class="a" d="M5.4,143.4a15.7,15.7,0,0,0,15.533,15.8,15.8,15.8,0,0,0,0-31.593A15.79,15.79,0,0,0,5.4,143.4Z" transform="translate(-5.4 -127.6)"/><path class="b" d="M11.3,141.53a7.9,7.9,0,1,0,7.9-8.03A7.95,7.95,0,0,0,11.3,141.53Z" transform="translate(-3.533 -125.733)"/></g><g transform="translate(277.226 383.324)"><path class="a" d="M214.4,334.5a15.535,15.535,0,1,0,15.533-15.8A15.7,15.7,0,0,0,214.4,334.5Z" transform="translate(-214.4 -318.7)"/><path class="b" d="M220.2,332.63a7.9,7.9,0,1,0,7.9-8.03A7.95,7.95,0,0,0,220.2,332.63Z" transform="translate(-212.565 -316.833)"/></g><g transform="translate(105.309 541.288)"><ellipse class="a" cx="15.533" cy="15.796" rx="15.533" ry="15.796"/><ellipse class="b" cx="7.898" cy="8.03" rx="7.898" ry="8.03" transform="translate(7.635 7.767)"/></g><g transform="translate(556.689 170.074)"><path class="a" d="M426.7,172.5a15.535,15.535,0,1,0,15.533-15.8A15.7,15.7,0,0,0,426.7,172.5Z" transform="translate(-426.7 -156.7)"/><path class="b" d="M432.6,170.63a7.9,7.9,0,1,0,7.9-8.03A7.95,7.95,0,0,0,432.6,170.63Z" transform="translate(-424.833 -154.833)"/></g><g transform="translate(580.778 486.527)"><path class="a" d="M445,412.9a15.535,15.535,0,1,0,15.533-15.8A15.7,15.7,0,0,0,445,412.9Z" transform="translate(-445 -397.1)"/><path class="b" d="M450.9,411.03a7.9,7.9,0,1,0,7.9-8.03A7.95,7.95,0,0,0,450.9,411.03Z" transform="translate(-443.133 -395.233)"/></g></g><g transform="translate(134.515 79.378)"><path class="c" d="M608.513,349.3h-276.3L276,599.408H552.3Z" transform="translate(-48.401 22.427)"/><g transform="translate(239.062)"><g transform="translate(11.441 105.69)"><path class="d" d="M345.66,149.8h-41.2L293.4,332.511H340Z" transform="translate(-293.4 -146.377)"/><path class="e" d="M349.586,149.8h-41.86L296.8,332.511h47.389Z" transform="translate(-292.324 -146.377)"/><path class="d" d="M355.936,153.3h-41.86L296.7,330.877l44.23.263Z" transform="translate(-292.356 -145.27)"/><path class="f" d="M344.9,151.7c-10.136,3.949-20.667,4.344-31.724,1.843l-12.374,176c13.559-2.5,26.459-2.5,35.805.395Z" transform="translate(-291.059 -145.776)"/><path class="d" d="M444.406,147.3H335.017L320.8,333.3H432.427Z" transform="translate(-284.732 -147.168)"/><path class="g" d="M448.238,147.3H338.717L324.5,333.3H436.259Z" transform="translate(-283.561 -147.168)"/><path class="h" d="M324.626,154.548a71.728,71.728,0,0,1-11.452-1.448L300.8,329.1a99.546,99.546,0,0,1,16.06-1.711Z" transform="translate(-291.059 -145.333)"/><g class="i" transform="translate(46.599 7.24)"><path class="j" d="M430.555,324.485H328.8L341.7,152.7h99.78Zm-99.912-1.843h98.2l10.663-168.231H343.28Z" transform="translate(-328.8 -152.7)"/></g><g class="i" transform="translate(52.523 13.559)"><path class="j" d="M424.261,316.648H333.3L344.752,157.5H433.87Zm-89.249-1.58h87.8l9.478-155.857H346.332Z" transform="translate(-333.3 -157.5)"/></g><path class="k" d="M398.711,147.2l-25.932,73.19-26.327-14.217L331.84,235.528l-7.24,97.806H433.331l14.875-67.4L423.854,147.2Z" transform="translate(-283.53 -147.2)"/></g><path class="l" d="M406.129,89.67c-14.612-5.134-10.663-19.614-5-21.983s19.614.263,16.586,13.822S406.129,89.67,406.129,89.67Z" transform="translate(-249.493 -66.91)"/><path class="m" d="M407.7,80.068c-6.319-2.238-9.215-6.319-9.873-10.268-3.159,5.265-3.028,14.743,8.293,18.824,0,0,8.556,5.4,11.584-8.161a14.54,14.54,0,0,0,.395-4.607C414.412,84.412,407.7,80.068,407.7,80.068Z" transform="translate(-249.483 -65.996)"/><path class="n" d="M408.6,88.284c-11.452-3.028-8.293-11.321-3.949-12.769s15.4.132,13.032,8.03S408.6,88.284,408.6,88.284Z" transform="translate(-248.014 -64.34)"/><path class="l" d="M412.945,147.542c-20.14-14.348-20.009-48.969-11.057-62.132s33.435-13.164,43.835-1.185,11.452,31.2,2.5,41.465C439.141,135.826,412.945,147.542,412.945,147.542Z" transform="translate(-249.464 -64.23)"/><path class="m" d="M439.737,113.114C439.342,91.526,436.315,86,427.1,80.6c0,0,10.794,9.083,5.66,21.72Z" transform="translate(-239.661 -62.58)"/><path class="m" d="M436.762,112.651c-6.187-22.9-10.663-28.3-21.062-32.251,0,0,13.032,7.372,11.452,21.983Z" transform="translate(-243.268 -62.643)"/><path class="m" d="M423.749,107.229c-11.057-9.346-15.928-21.193-8.951-29.486A24.322,24.322,0,0,1,416.64,75.9c-6.055,1.316-11.452,4.344-14.743,9.215-8.951,13.164-9.215,47.784,11.057,62.132,0,0,26.2-11.716,35.278-21.983a25.624,25.624,0,0,0,5.66-12.9C446.522,119.735,434.28,116.049,423.749,107.229Z" transform="translate(-249.474 -64.066)"/><path class="o" d="M466.006,215.689c-1.448-33.041-35.278-70.425-38.833-70.689-3.423-.263-2.9,13.822,5.66,27.644s17.9,46.731,18.956,50.153C452.974,226.352,466.27,221.481,466.006,215.689Z" transform="translate(-240.261 -42.207)"/><path class="p" d="M427.5,142.6c-1.58-.132-2.369,3.554-1.975,8.82,6.713,5.134,34.094,40.149,36.99,70.294,1.975-1.448,3.423-3.291,3.423-5.265C464.488,183.408,431.053,142.864,427.5,142.6Z" transform="translate(-240.192 -42.966)"/><path class="p" d="M368.2,218.17c1.448-33.041,35.278-74.506,38.833-74.769,3.423-.263,2.238,23.563-6.319,37.516-8.556,13.822-17.376,41.07-18.429,44.493S367.938,224.093,368.2,218.17Z" transform="translate(-258.296 -42.713)"/><path class="o" d="M398.037,172.531c-10.4,15.138-14.085,38.174-29.618,37.516-.921,0,6.713,13.032,5,12.769,3.817,1.975,8.293,2.633,8.82.658,1.053-3.423,13.032-32.251,21.457-46.073,4.739-7.766,0-20.272.658-28.3C402.117,156.735,402.644,165.818,398.037,172.531Z" transform="translate(-258.25 -40.909)"/><path class="q" d="M389.933,200.207c-6.45-5.265-19.219-7.108-22.641-5-3.291,2.106-1.975,17.508,7.5,20.14C384.272,218.11,389.933,200.207,389.933,200.207Z" transform="translate(-259.097 -26.593)"/><path class="p" d="M433.205,170.208,397.4,152.7c16.586,77.139-1.185,67.661,2.9,97.542,20.272,8.425,39.886,5.134,58.71-8.688C440.313,237.474,433.205,170.208,433.205,170.208Z" transform="translate(-249.057 -39.77)"/><path class="o" d="M413.328,250.011c-4.607-18.956,2.238-36.858,15.138-40.017,4.081-1.053,8.425-.263,12.505,1.58-5.4-19.482-7.766-41.465-7.766-41.465L397.4,152.6c16.586,77.139-1.185,67.661,2.9,97.542a58.1,58.1,0,0,0,14.085,3.949C414.118,252.907,413.723,251.459,413.328,250.011Z" transform="translate(-249.057 -39.802)"/><path class="r" d="M444.766,236.5,341.3,192.8c23.958,37.253,58.315,72.531,69.9,75.691s52,4.871,60.026,1.711,70.03-69.5,70.03-69.5S460.431,236.108,444.766,236.5Z" transform="translate(-266.805 -27.084)"/><path class="s" d="M470.185,212.2,432.8,234.973l12.505-13.3Z" transform="translate(-237.858 -20.946)"/><path class="p" d="M397.292,146.255c-6.713,11.979,0,55.682,3.159,58.578,3.028,2.9,47.915-2.106,50.153-4.081s-8.82-53.313-12.505-55.945c-3.554-2.633-15.138-7.372-17.771-7.5C417.827,136.908,398.082,144.938,397.292,146.255Z" transform="translate(-250.002 -44.645)"/><path class="o" d="M403.337,197.021c-2.369-2.369-7.9-28.3-8.161-47.521-2.633,16.849,2.5,50.022,5,52.391,3.028,2.9,48.179-3.291,50.417-5.134.263-.263.395-1.316.263-3.028C441.38,196.231,406.233,199.917,403.337,197.021Z" transform="translate(-249.992 -40.782)"/><path class="t" d="M428.047,191.8c0,3.686-2.106,4.739-2.633,7.24-.395,2.5-1.711-1.053-1.185-3.159C424.756,193.906,428.047,191.8,428.047,191.8Z" transform="translate(-240.608 -27.4)"/><path class="u" d="M422.126,194.854c3.554,2.5,5.134,1.58,5.792.79a11.25,11.25,0,0,0,1.58-3.159l-3.949-1.185.132,2.5C425.548,193.933,419.888,193.275,422.126,194.854Z" transform="translate(-241.4 -27.558)"/><path class="u" d="M420.124,195.754c3.554,2.5,5.134,1.58,5.792.79a11.252,11.252,0,0,0,1.58-3.159l-3.949-1.185.132,2.5C423.678,194.833,417.886,194.175,420.124,195.754Z" transform="translate(-242.031 -27.274)"/><path class="u" d="M375.143,201.921C390.413,196,436.354,190.6,436.354,190.6l.395,1.185s-44.756,25.932-58.973,23.168C363.428,212.188,368.956,204.29,375.143,201.921Z" transform="translate(-258.13 -27.78)"/><path class="t" d="M382.909,206.965c-5.4-1.185-8.03-3.028-8.82-4.871-5.66,2.764-9.873,10,3.686,12.637,14.217,2.764,58.973-23.168,58.973-23.168l-.132-.263C422.532,197.619,393.835,209.466,382.909,206.965Z" transform="translate(-258.129 -27.558)"/><path class="u" d="M430.57,191.489c-2.764-2.369-8.82-1.975-13.822.132l-1.448,2.9c4.081-.921,10.268.921,12.111,1.316C429.253,196.359,433.334,193.858,430.57,191.489Z" transform="translate(-243.394 -28.011)"/><path class="u" d="M426.948,190.9c3.159,2.633,8.03,8.82,7.9,10,0,1.053-3.686-2.369-4.739-3.686-.921-1.316-4.607-3.949-4.607-3.949Z" transform="translate(-240.167 -27.685)"/><path class="v" d="M464.495,151.8l-35.147,77.534-35.542,1.843-2.106,1.975,110.574-1.58L540.186,151.8Z" transform="translate(-250.86 -40.055)"/><path class="w" d="M447,151.8c31.461,13.559,44.493,39.886,37.911,79.771L522.822,151.8H447Z" transform="translate(-233.366 -40.055)"/><path class="x" d="M431.981,232.493,468.312,151.8h-3.817l-35.147,77.534-35.542,1.843-2.106,1.975Z" transform="translate(-250.86 -40.055)"/><path class="s" d="M516.4,181.464c-13.953,3.159-45.546,38.438-82.8,91.224l.79,1.975s64.5-49.758,72.137-58.973S530.352,178.173,516.4,181.464Z" transform="translate(-237.605 -30.754)"/><path class="y" d="M507.843,207.108c-5.792,6.319-41.992,31.856-62,45.809-3.949,5.4-8.161,11.189-12.242,17.113l.79,1.975s64.9-48.705,72.531-57.92c4.081-5,10.268-16.323,13.3-24.484A92.993,92.993,0,0,1,507.843,207.108Z" transform="translate(-237.605 -28.096)"/><path class="y" d="M438,263.323l33.7-25.406s16.718-31.2,33.962-52.918C490.391,196.057,466.038,224.359,438,263.323Z" transform="translate(-236.213 -29.552)"/><path class="s" d="M343.015,190.677c-8.425,6.055,9.609,18.429,26.327,35.542,16.849,17.244,47.521,22.378,95.963,45.546l1.975-1.185C409.754,216.215,351.439,184.622,343.015,190.677Z" transform="translate(-266.94 -27.989)"/><path class="y" d="M447.258,251.926c-40.412-16.981-66.871-22.378-82.141-37.516-8.951-8.82-18.3-16.454-23.826-22.51-3.028,6.582,12.637,19.482,27.775,35.015,16.849,17.244,48.047,21.062,96.358,44.23l1.975-1.185C460.685,263.642,453.971,257.718,447.258,251.926Z" transform="translate(-266.928 -27.369)"/><path class="z" d="M438.4,259.531l5.792-9.346A107.18,107.18,0,0,0,425.5,236.1Z" transform="translate(-240.167 -13.385)"/><path class="v" d="M437.672,257.672l-7.372-2.5s5.924-10.4,21.72-17.771Z" transform="translate(-238.649 -12.974)"/><path class="q" d="M433.484,142.847c-5-2.633-12.374-6.582-14.348-6.845-2.106-.263-15.007,5.924-20.535,8.951,10.4,36.2,28.565,51.338,28.565,51.338S435.195,143.637,433.484,142.847Z" transform="translate(-248.678 -45.055)"/><path class="o" d="M433.484,141.358c-.395-.263-.79-.395-1.185-.658-.921,12.505-6.45,49.364-6.45,49.364s-16.586-13.822-27.117-46.6H398.6c10.4,36.2,28.96,53.313,28.96,53.313S435.195,142.148,433.484,141.358Z" transform="translate(-248.678 -43.566)"/><path class="u" d="M404.9,149.148c-.263-23.826,3.423-37.648,3.423-37.648l14.217,12.769-.79,21.457s-3.423,7.24-7.766,7.767C409.51,154.018,404.9,149.148,404.9,149.148Z" transform="translate(-246.688 -52.804)"/><g transform="translate(73.383 241.793)"><path class="aa" d="M536.878,252.3h-88.46c-15.665,0-20.14,45.546-4.476,45.546H532.4C524.372,291.791,525.557,259.54,536.878,252.3Z" transform="translate(-310.8 -250.053)"/><path class="ab" d="M483.6,250.6H360.259c-24.484-.79-27.249,49.364-2.764,50.022H480.838C459.908,300.1,462.541,250.076,483.6,250.6Z" transform="translate(-340.456 -250.593)"/><path class="ac" d="M479.771,294.041c-8.951-1.053-13.3-11.452-13.427-22.641H340.5c.263,11.452,5.792,22.378,17.113,22.641Z" transform="translate(-340.442 -244.01)"/><path class="n" d="M536.722,250.6h-98.2l-.921,4.739h98.2a2.827,2.827,0,0,0,2.764-2.369h0A1.8,1.8,0,0,0,536.722,250.6Z" transform="translate(-309.723 -250.591)"/><path class="n" d="M535.027,285.5H437.221l-.922,4.081h97.806a3,3,0,0,0,2.9-2.106h0C537.265,286.421,536.343,285.5,535.027,285.5Z" transform="translate(-310.134 -239.55)"/><path class="ad" d="M528.591,259.3H452.242c-15.665,0-17.376,30.54-1.843,30.54h76.612C524.642,281.81,525.037,268.646,528.591,259.3Z" transform="translate(-309.095 -247.838)"/><path class="n" d="M455,250.6H440.261c-11.452,9.478-12.9,40.544-1.843,50.022H452.24C431.31,300.1,433.942,250.074,455,250.6Z" transform="translate(-311.857 -250.592)"/><g class="ae" transform="translate(6.669 1.848)"><path class="j" d="M457.384,298.468H363.527a16.868,16.868,0,0,1-15.007-9.215c-4.344-8.03-3.949-19.745,1.053-27.907,3.817-6.187,9.741-9.478,16.586-9.346h92.8l-2.106,1.58c-5.66,4.344-9.215,13.164-9.346,22.9-.132,8.951,2.764,16.586,7.767,20.535Zm-91.619-44.756c-6.055,0-11.189,3.028-14.612,8.556-4.739,7.635-5.134,18.692-1.053,26.2a14.9,14.9,0,0,0,13.427,8.293h89.118c-4.344-4.607-6.713-11.979-6.713-20.4.132-9.215,3.159-17.639,8.161-22.641H365.765Z" transform="translate(-345.522 -251.997)"/></g></g><g transform="translate(0 284.041)"><path class="aa" d="M585.829,285.9h-136.9c-24.221,0-25.537,87.538-1.316,87.538h136.9C571.349,361.722,569.111,299.853,585.829,285.9Z" transform="translate(-238.715 -281.671)"/><path class="af" d="M503.082,282.7H312.209c-38.043-1.448-35.937,94.778,2.106,96.226H505.188C472.542,377.613,470.436,281.388,503.082,282.7Z" transform="translate(-284.708 -282.688)"/><path class="ag" d="M503.384,366.04c-13.953-1.975-21.983-22.115-23.563-43.44H285c1.843,22.115,11.716,43.045,29.223,43.572H503.384Z" transform="translate(-284.616 -270.061)"/><path class="ah" d="M586,282.7H434.09l-.79,9.083H585.208c1.975,0,3.818-2.106,4.081-4.607h0C589.552,284.674,587.972,282.7,586,282.7Z" transform="translate(-237.7 -282.684)"/><path class="ah" d="M587.8,349.7H436.421l-.921,7.9H586.881a4.259,4.259,0,0,0,4.081-3.949h0A3.355,3.355,0,0,0,587.8,349.7Z" transform="translate(-237.004 -261.488)"/><path class="ad" d="M574.119,299.3H456.041c-24.221,0-23.168,58.841,1.053,58.841H575.7C570.7,342.74,569.775,317.2,574.119,299.3Z" transform="translate(-236.088 -277.432)"/><path class="ah" d="M458.794,282.7H436.153c-16.586,18.166-14.875,77.929,3.291,96.226H460.9C428.255,377.613,426.148,281.387,458.794,282.7Z" transform="translate(-240.421 -282.687)"/><g class="ae" transform="translate(10.332 3.421)"><path class="j" d="M468.611,374.685H323.285c-10.136-.395-18.824-6.582-24.353-17.771-7.767-15.4-8.556-38.043-1.711-53.707,5.134-11.979,13.822-18.3,24.484-17.9H465.452l-3.028,3.028c-8.161,8.425-12.637,25.274-11.584,43.966.921,17.113,6.45,31.856,14.48,39.491ZM321.179,288.6c-9.346,0-16.981,5.792-21.457,16.323-6.319,14.743-5.66,35.937,1.58,50.285,3.554,7.108,10.268,15.533,21.852,15.928H461.108c-7.24-8.688-11.979-23.036-12.9-39.1-1.053-17.771,2.764-33.831,9.873-43.572H321.968A1.67,1.67,0,0,1,321.179,288.6Z" transform="translate(-292.557 -285.287)"/></g></g><path class="k" d="M425.769,179.475c9.346-5.529,14.085-16.718,13.427-28.7a13.409,13.409,0,0,0-1.975-1.053v-.263a.46.46,0,0,0-.132-.263c-3.028-1.58-6.713-3.554-9.741-5l.658-19.35a33.809,33.809,0,0,0-15.138-9.346,188.3,188.3,0,0,0-2.369,31.724c-3.159,1.448-6.187,3.028-8.293,4.081h-.132v.132a14.351,14.351,0,0,0-1.448.79c-1.58.527-7.108,6.45-13.427,15.27C396.941,181.45,413.264,186.847,425.769,179.475Z" transform="translate(-252.284 -51.539)"/><path class="u" d="M406.131,111.2c-7.635,32.909,18.956,45.809,18.956,45.809s21.062-20.272,23.563-45.546c1.316-13.69-.658-17.9-14.217-20.009C420.743,89.347,408.106,102.643,406.131,111.2Z" transform="translate(-246.731 -59.216)"/><path class="m" d="M408.812,129.2c6.977-20.4,8.556-37.516.263-36.595C400.651,93.4,396.965,122.753,408.812,129.2Z" transform="translate(-247.832 -58.792)"/><path class="u" d="M410.221,127.214c1.711-17.508.263-19.614-5.265-19.614C398.638,107.6,398.111,124.318,410.221,127.214Z" transform="translate(-248.057 -54.038)"/><path class="ai" d="M407.88,122.316c1.053-10.4.132-11.716-3.159-11.716C401.035,110.469,400.64,120.6,407.88,122.316Z" transform="translate(-247.559 -53.089)"/><path class="u" d="M407.932,122.25c0-6.713-.658-7.5-3.028-7.24C402.14,115.142,402.535,121.592,407.932,122.25Z" transform="translate(-247.216 -51.707)"/><g transform="translate(168.22 46.454)"><path class="aj" d="M433.92,116.8c.527-2.764-.527-5.134-2.238-5.4s-3.423,1.843-3.949,4.607.527,5.134,2.238,5.4S433.525,119.567,433.92,116.8Z" transform="translate(-407.724 -99.295)"/><path class="aj" d="M421.433,115.329c.658-3.159-.263-5.924-2.106-6.319s-3.817,1.975-4.476,5.134.263,6.055,2.106,6.319S420.775,118.488,421.433,115.329Z" transform="translate(-411.823 -100.059)"/><path class="aj" d="M412.7,112.845s6.45-3.423,11.452-1.711c0,0-.79-2.764-4.607-2.633C415.6,108.633,412.7,112.845,412.7,112.845Z" transform="translate(-412.437 -100.208)"/><path class="aj" d="M436.646,115.211s-4.607-3.949-9.346-3.423c0,0,1.448-2.238,4.871-1.448C435.461,111,436.646,115.211,436.646,115.211Z" transform="translate(-407.818 -99.678)"/><path class="ak" d="M412.5,108.913v-.658a15.786,15.786,0,0,1,10.662-6.055l-.132,2.369C420.793,104.175,415.264,105.754,412.5,108.913Z" transform="translate(-412.5 -102.2)"/><g transform="translate(21.457 1.185)"><path class="ak" d="M437.883,111.525c-2.238-4.476-7.635-6.055-9.083-6.055l.527-2.369c1.58.132,6.582,2.106,9.083,7.635Z" transform="translate(-428.8 -103.1)"/></g><path class="al" d="M427.243,121.79c0,.132,0,.132-.132.263A3.419,3.419,0,0,1,422.5,123.5a3.57,3.57,0,0,1-1.843-2.5,3.446,3.446,0,0,0,1.58,4.344,3.311,3.311,0,0,0,4.607-1.448A2.484,2.484,0,0,0,427.243,121.79Z" transform="translate(-409.998 -96.252)"/><path class="am" d="M416.3,127.6l11.584,1.843s-2.5,5.66-7.24,4.739C416.168,133.26,416.3,127.6,416.3,127.6Z" transform="translate(-411.298 -94.164)"/><path class="an" d="M416.946,127.8l9.873,1.58s.132,2.633-5.529,1.843C415.366,130.433,416.946,127.8,416.946,127.8Z" transform="translate(-411.154 -94.101)"/><path class="ao" d="M422.379,134.551c.132-.658-1.053-.132-2.238-.395s-2.106-1.053-2.238-.395.658,1.448,1.975,1.711A2.186,2.186,0,0,0,422.379,134.551Z" transform="translate(-410.795 -92.296)"/></g></g><g transform="translate(334.619 213.762)"><path class="ap" d="M541.1,318.6H402.22L393.4,452.474,484.492,577.66Z" transform="translate(-345.879 -201.048)"/><path class="aq" d="M543.827,322.4H404.951L396,456.274,487.224,581.46Z" transform="translate(-345.057 -199.846)"/><path class="ar" d="M552.793,327.2H414.048L363.5,561.249,496.321,586.26Z" transform="translate(-355.339 -198.327)"/><path class="as" d="M413.33,337.688c24.748-.658,45.414-2.369,45.414-8.03a.986.986,0,0,0-.132-.658H405.3Z" transform="translate(-342.115 -197.758)"/><path class="c" d="M402.8,326.3c16.981,2.633,25.274,11.321,22.9,22.378C422.677,362.5,402.8,326.3,402.8,326.3Z" transform="translate(-342.906 -198.612)"/><path class="aq" d="M566.748,341.8H427.872L371.4,600.86H510.144Z" transform="translate(-352.839 -193.708)"/><path class="at" d="M587.248,341.8H448.372L391.9,600.86H530.644Z" transform="translate(-346.354 -193.708)"/><path class="v" d="M431.727,355.4,382.1,582.735H503.863L553.49,355.4H431.727Zm70.162,223.65H386.839L433.7,359.217h115.05Z" transform="translate(-349.454 -189.406)"/><path class="k" d="M420.4,318.7l3.686,4.476-.921,6.45,16.191,19.482h21.325l5-30.408Z" transform="translate(-337.338 -201.016)"/><path class="au" d="M633.988,293.4H489.057a8.5,8.5,0,0,0-8.425,8.03L462.2,608.01a8.444,8.444,0,0,0,8.425,8.951H626.353a8.573,8.573,0,0,0,8.556-8.293l7.635-306.58A8.568,8.568,0,0,0,633.988,293.4Z" transform="translate(-324.117 -209.02)"/><path class="av" d="M543.737,293.4H486.871c-1.711,0-2.764,3.554-2.238,8.03l33.3,306.58c.526,4.871,2.633,8.951,4.476,8.951h61.079c1.843,0,2.764-3.686,2.238-8.293l-37.516-306.58C547.555,297.349,545.58,293.4,543.737,293.4Z" transform="translate(-317.06 -209.02)"/><g transform="translate(173.101 98.07)"><path class="v" d="M613.591,603.14H488.8v-1.053l.263-298.287H620.7a8.865,8.865,0,0,1,6.319,2.633,8.337,8.337,0,0,1,2.5,6.45l-6.977,281.7A8.973,8.973,0,0,1,613.591,603.14Zm-122.685-2.106H613.723a6.63,6.63,0,0,0,6.713-6.582l6.977-281.7a6.76,6.76,0,0,0-1.975-4.871,6.888,6.888,0,0,0-4.87-2.106H491.038Z" transform="translate(-488.8 -303.8)"/></g><path class="av" d="M497.133,293.4h-46.2L445.4,617.093h51.47Z" transform="translate(-329.429 -209.02)"/><path class="aw" d="M449.632,293.4l-.132,5.4,40.017.395,2.9,317.9h3.159l.263-323.693Z" transform="translate(-328.132 -209.02)"/><path class="ax" d="M556.112,382.2s34.752,101.228,34.752,104.782-48.179,87.538-48.179,87.538l-1.185-.395,24.353-84.905-20.535-50.548Z" transform="translate(-299.026 -180.928)"/><path class="ay" d="M552.358,400.9,538.8,426.042l26.459,56.34-22.773,85.827.263.132c9.083-20.8,33.172-82.931,33.172-85.827C575.921,480.013,562.626,431.045,552.358,400.9Z" transform="translate(-299.88 -175.012)"/><path class="ax" d="M518.032,394.9c14.743,70.425,58.446,190.346,58.446,190.346H577.8L560.419,432.152l8.688-8.161-4.871-41.465C564.1,382.656,515,380.024,518.032,394.9Z" transform="translate(-306.493 -180.857)"/><path class="ay" d="M522.9,412.492c20.272-18.824,27.512-18.3,33.3-16.06a17.564,17.564,0,0,0,10.926.527l-2.764-11.452L523.558,383.4Z" transform="translate(-304.911 -180.548)"/><g transform="translate(211.423 205.09)"><path class="ay" d="M525.794,385.1c-5.265,1.843-8.556,4.739-7.766,8.951C532.771,464.477,576.474,584.4,576.474,584.4h1.185C570.682,559.781,539.221,448.154,525.794,385.1Z" transform="translate(-517.911 -385.1)"/></g><path class="ay" d="M553.51,425.159l-12.11-4.607,12.242-.263,10.531-8.688Z" transform="translate(-299.058 -171.626)"/><path class="n" d="M541.2,306.1c22.9,18.692,31.329,54.234,31.329,54.234L616.5,358.36l2.238,10.4s-36.727,21.325-56.077,15.533C543.174,378.5,541.2,306.1,541.2,306.1Z" transform="translate(-299.121 -205.003)"/><path class="t" d="M600.075,357.415c9.346,2.5,15.8.263,18.429-2.9s6.977-11.321,2.633-11.716-23.036,7.108-23.036,7.108Z" transform="translate(-281.12 -193.396)"/><path class="az" d="M576.084,368.232c-12.9-3.817-7.767-35.673-34.884-62.132,0,0,1.974,72.4,21.325,78.192,19.482,5.792,56.077-15.533,56.077-15.533l-1.185-5.924C605.043,365.6,589.51,372.313,576.084,368.232Z" transform="translate(-299.121 -205.003)"/><path class="v" d="M606.4,358.2c0,.395-6.187-13.3-6.187-13.3l-12.111.921,1.448,9.083,3.686.132-4.476,2.5,4.739,7.5Z" transform="translate(-284.284 -192.728)"/><path class="n" d="M522.958,300.2c-19.087,24.221-13.032,57.13-8.556,72.663,4.476,15.665-2.764,47.126,9.215,61.079,0,0,17.376-18.956,29.486-17.376s15.138,7.767,18.3,5-.922-40.544,1.185-51.075c1.975-10.4-1.053-38.569-14.48-54.892C544.546,299.543,522.958,300.2,522.958,300.2Z" transform="translate(-309.049 -206.87)"/><path class="ba" d="M520.447,309.5a8.425,8.425,0,0,0-6.055,3.028c-8.161,21.325-3.554,44.888.132,57.393,4.476,15.665-2.764,47.126,9.215,61.079,0,0,8.425-9.215,17.639-14.217a272.863,272.863,0,0,0,1.448-28.3C542.562,344.91,532.689,309.5,520.447,309.5Z" transform="translate(-309.039 -203.927)"/><path class="bb" d="M532.408,303.938c-12.769-20.14-7.372-28.3-7.372-28.3s-6.977-10.531.132-20.535c0,0,.527-14.875,18.429-18.166,0,0,11.716-12.637,21.062-5.4,0,0,10.926-8.688,16.06,8.293,5.134,16.849-1.316,16.718-1.316,16.718s10.136,21.852-6.318,27.249C556.5,289.195,532.408,303.938,532.408,303.938Z" transform="translate(-305.204 -229.299)"/><path class="bc" d="M571.93,283.9s-12.637-.658-16.454-12.242c0,0-11.584-9.215-3.818-25.537,0,0-1.975-10.268,2.5-16.323-5.924,1.843-10.662,6.977-10.662,6.977-17.771,3.291-18.429,18.166-18.429,18.166-7.108,9.873-.132,20.535-.132,20.535s-5.529,8.161,7.372,28.3c0,0,23.168-14.085,39.622-19.745Z" transform="translate(-305.235 -229.141)"/><path class="v" d="M545.106,305.334,519.7,300.2c19.877,9.478,38.964,26.985,38.964,26.985S552.214,309.546,545.106,305.334Z" transform="translate(-305.923 -206.869)"/><path class="u" d="M519.8,311.114,538.229,265.7l16.06,21.588-6.845,32.382Z" transform="translate(-305.891 -217.784)"/><path class="bd" d="M649.44,288.4l-40.017,74.769L544,369.093l.263,1.185h89.118l45.546-74.638Z" transform="translate(-298.235 -210.602)"/><path class="be" d="M609.423,345.2,544,351.124l.263,1.185h89.118l-20.4-2.9Z" transform="translate(-298.235 -192.633)"/><path class="bf" d="M544.2,351.3h89.118l-20.4-2.9Z" transform="translate(-298.172 -191.62)"/><path class="h" d="M641.451,290,596.3,366.875l20.535,2.9,45.546-74.638Z" transform="translate(-281.69 -210.096)"/><path class="bg" d="M636.516,290,611.9,369.771l45.546-74.638Z" transform="translate(-276.754 -210.096)"/><path class="ba" d="M513.9,359.751c2.764,16.323-2.633,43.966,8.161,57.13,8.161-33.7,20.93-45.283,48.705-42.913-.263-7.635-.263-14.743.263-18.956C555.76,352.906,529.96,351.194,513.9,359.751Z" transform="translate(-307.758 -190.071)"/><path class="n" d="M540.261,362.547c-1.975-30.408-11.452-63.844-16.455-62.132-6.055,1.975-16.06,14.743-17.771,32.909-1.58,16.718,9.741,53.839,18.166,60.684s56.209-27.117,68.977-32.646l2.238-13.822C577.777,347.146,555.136,354.386,540.261,362.547Z" transform="translate(-310.293 -206.821)"/><path class="az" d="M534.7,349.368c14.875-6.187,34.62-10.926,50.153-9.741l-2.369,11.189,1.58-.79L586.3,336.2C569.979,335.809,549.443,342,534.7,349.368Z" transform="translate(-301.178 -195.484)"/><path class="az" d="M529.109,380.458c-8.425-6.845-18.166-47.915-16.454-64.633A53.456,53.456,0,0,1,514.1,307.4a54.027,54.027,0,0,0-8.161,23.826c-1.58,16.718,8.161,57.788,16.455,64.633,8.425,6.845,57.92-31.066,70.689-36.726l1.448-8.556C577.288,360.054,536.612,386.645,529.109,380.458Z" transform="translate(-310.33 -204.591)"/><path class="bh" d="M580.27,540.886H562.5s-2.5-4.344,1.185-6.187C568.423,532.33,580.27,540.886,580.27,540.886Z" transform="translate(-292.645 -132.814)"/><path class="bh" d="M553.78,543.752h-10L539.3,529.93s4.212-7.5,6.318-3.554c1.316,2.5.527,9.873.527,13.032A53.467,53.467,0,0,0,553.78,543.752Z" transform="translate(-299.722 -135.679)"/><path class="aq" d="M406.9,323.765c-2.633,8.03,16.849,23.3,21.72,25.406l-14.612,3.423L399.4,331.005l1.053-12.505Z" transform="translate(-343.981 -201.08)"/><path class="bi" d="M435.623,353.089c-15.138-8.688-20.272-23.3-21.852-34.489L357.3,577.66c2.369,13.032,8.03,23.826,19.087,30.8Z" transform="translate(-357.3 -201.048)"/><path class="v" d="M477.321,391.7H455.6l-2.5,172.443h24.089Z" transform="translate(-326.993 -177.922)"/><path class="v" d="M455.921,312.5H477.51l1.58-7.9H455Z" transform="translate(-326.392 -205.477)"/><path class="v" d="M455.921,325.83H477.51l1.58-8.03H455Z" transform="translate(-326.392 -201.301)"/><path class="t" d="M588.394,338.148c.395,4.212-.658,6.845-1.58,7.372s-4.081-1.053-4.607-2.369C581.681,341.7,588.131,334.463,588.394,338.148Z" transform="translate(-286.158 -195.191)"/><path class="u" d="M587.931,336c-.263,7.9-1.053,8.556-2.238,9.346-1.185.658-4.871-.263-5.265-1.448s.263-4.344,1.185-4.081a15.3,15.3,0,0,0,2.106.395Z" transform="translate(-286.748 -195.543)"/><path class="u" d="M588.762,334.776c-1.58-3.159-14.348-2.9-21.062,3.423l4.212,11.321c5.792-2.5,10.926-6.977,14.48-6.582C590.078,343.2,590.473,337.935,588.762,334.776Z" transform="translate(-290.738 -196.557)"/><path class="u" d="M584.431,337.3c-.263,7.9-1.053,8.556-2.238,9.346-1.185.658-4.871-.263-5.265-1.448s.263-4.344,1.185-4.081a15.3,15.3,0,0,0,2.106.395Z" transform="translate(-287.855 -195.132)"/><path class="u" d="M581.8,333.1a14.777,14.777,0,0,1,8.688,5,27.765,27.765,0,0,1,3.291,8.161c0,1.185-2.369,2.633-2.9,1.053-.527-1.448-2.106-6.055-2.633-6.187s-4.739-2.5-5-2.5S581.8,333.1,581.8,333.1Z" transform="translate(-286.277 -196.461)"/><path class="v" d="M578.3,350.065c0,.527-6.187-15.665-6.187-15.665L560,335.453l1.448,10.531,3.686.132-4.476,3.028,4.739,8.82Z" transform="translate(-293.174 -196.049)"/><path class="v" d="M518.4,302.124l3.554-5.924,27.775,10.4-1.711,5.265Z" transform="translate(-306.334 -208.135)"/><path class="k" d="M551.3,316.765c-.132-.263-.395-.395-.527-.658l.922-2.9-1.053-.395,3.028-14.612c-4.607-8.688-11.057-17.244-18.166-22.9l-11.321,27.775-.395-.132-3.554,5.792.395.132c-2.5,1.185-5.529,4.081-8.425,8.293,15.928-.658,38.174,15.27,46.2,10.4a4.185,4.185,0,0,0,1.448-1.58A47.139,47.139,0,0,0,551.3,316.765Z" transform="translate(-308.296 -214.746)"/><path class="u" d="M538.385,257.674c-9.741,23.826-9.609,46.073-9.478,47.784s15.665,13.3,20.93,14.348c0,0,18.956-23.958,22.9-43.966s-1.185-25.011-7.108-26.2C559.578,248.328,542.2,248.459,538.385,257.674Z" transform="translate(-303.02 -223.053)"/><path class="bc" d="M535.142,289.151c13.164-31.593,16.849-46.731,5.66-41.07-11.189,5.792-10.4,36.463-10.4,36.463Z" transform="translate(-302.541 -223.727)"/><path class="u" d="M536.281,273.337c.263-7.5-8.03-14.085-9.609-6.055s3.554,20.009,5.529,17.508C534.306,282.288,536.149,275.838,536.281,273.337Z" transform="translate(-303.812 -218.444)"/><path class="ai" d="M534,272.781c.263-4.739-5-8.951-6.055-3.817-.921,5,2.238,12.505,3.422,11.057C532.81,278.442,534,274.361,534,272.781Z" transform="translate(-303.369 -217.493)"/><path class="u" d="M532.879,274.659c.132-3.028-3.291-5.792-3.949-2.5s1.448,8.293,2.238,7.24A13.773,13.773,0,0,0,532.879,274.659Z" transform="translate(-303.043 -216.212)"/><g transform="translate(238.13 36.54)"><path class="bj" d="M559.046,274.592c.922-1.975.658-4.081-.527-4.476s-2.764.921-3.686,2.9-.658,4.081.527,4.476C556.544,278.015,558.256,276.7,559.046,274.592Z" transform="translate(-533.113 -252.948)"/><path class="u" d="M553.05,268.6c1.711-.658,2.5,21.193,1.448,23.563-.527,1.185-7.9-2.9-7.9-2.9S552.655,268.735,553.05,268.6Z" transform="translate(-535.542 -253.409)"/><path class="al" d="M553.482,269.2c.79,4.607,1.58,20.272.658,22.247-.395.922-5-1.448-6.977-2.5a5.531,5.531,0,0,1-.263.658s7.767,4.739,8.293,3.554C556.115,291.052,554.93,270.385,553.482,269.2Z" transform="translate(-535.448 -253.216)"/><path class="bj" d="M549.767,270.706c1.053-1.975.922-3.949-.132-4.476s-2.9.658-3.949,2.633-1.053,3.949.132,4.476S548.714,272.68,549.767,270.706Z" transform="translate(-536.077 -254.195)"/><path class="bb" d="M560.518,259.22c-.658-1.711-10.926-2.369-13.559-2.106-2.5.263-3.028,2.106-3.159,4.081s10.794,6.187,14.612,3.949C560.255,264.09,561.045,260.931,560.518,259.22Z" transform="translate(-536.429 -257.057)"/><path class="bb" d="M558,267.253c-.395,3.423,5.4,5.134,6.713,3.686s2.5-3.028,1.975-4.476c-.658-1.448-4.344-6.055-5.792-5.134S558.136,265.673,558,267.253Z" transform="translate(-531.941 -255.744)"/><path class="al" d="M544.211,292.076c.132-.395-.658-1.185-1.975-1.975s-2.37-1.053-2.633-.658c-.132.395.658,1.185,1.975,1.974S544.079,292.471,544.211,292.076Z" transform="translate(-537.761 -246.869)"/><path class="al" d="M538.2,283.958a6.833,6.833,0,0,0,.395-.658c3.291,4.607,5.529,7.372,13.032,11.189l-.79.527C546.361,293.3,538.99,287.249,538.2,283.958Z" transform="translate(-538.2 -248.755)"/></g><path class="t" d="M615.267,352.269c3.554-3.817,6.582-11.584,5.792-14.348-.921-2.764-3.291-1.711-3.949-.527s-1.448,9.741-1.975,11.716A5.363,5.363,0,0,0,615.267,352.269Z" transform="translate(-275.777 -195.49)"/><path class="t" d="M613.408,354.184c3.028-2.9,4.739-8.688,3.422-10.663a2.418,2.418,0,0,0-4.081-.395c-.527.921.132,7.24,0,8.82A2.621,2.621,0,0,0,613.408,354.184Z" transform="translate(-276.551 -193.587)"/></g><g transform="translate(0 290.376)"><path class="bk" d="M222.4,357.7H355.089l18.692,239.051H223.98Z" transform="translate(-65.358 -265.292)"/><path class="bl" d="M235.827,490.489,285.585,357.8h20.8l-8.03,23.826,7.24-1.448,6.582,117.683h23.036l12.111,46.073H357.2l8.688,29.355,3.686,23.168H222.4Z" transform="translate(-65.358 -265.26)"/><g class="bm" transform="translate(162.044 99.648)"><path class="bn" d="M226.2,364.253,344.541,363.2,357.7,586.06l-130.056.658Zm116.629.79L228.043,366.1l1.448,218.648,126.239-.658Z" transform="translate(-226.2 -363.2)"/></g><path class="bo" d="M322.6,357.7h33.436l14.743,239.051H335.5Z" transform="translate(-33.659 -265.292)"/><path class="bp" d="M333,385.6h16.455L359.59,554.226H342.346Z" transform="translate(-30.369 -256.465)"/><path class="bl" d="M325.9,357.7l12.9,239.051h-5L320.9,357.7Z" transform="translate(-34.197 -265.292)"/><path class="y" d="M254.962,440.4C213.891,453.432,112.4,470.545,112.4,470.545l.527,1.711H270.89Z" transform="translate(-100.158 -239.128)"/><path class="bq" d="M264.445,452.7l6.319,15.665H112.8Z" transform="translate(-100.031 -235.237)"/><path class="v" d="M228.959,440.271c32.251-18.956,35.015-23.431,40.676-35.278s10.531-36.2-1.711-36.99-34.357,40.281-43.966,39.491C214.479,406.7,211.188,450.8,228.959,440.271Z" transform="translate(-67.31 -262.036)"/><path class="br" d="M221.332,407.032c1.975,3.817,9.609,7.766,13.953,3.554,18.034-17.9,20.4-34.357,29.75-39.359,1.053-.526,8.688.79,9.215-.526,3.686,7.635-.132,23.826-4.344,32.646-5.66,11.847-8.425,16.323-40.675,35.278C212.907,448.1,213.96,413.613,221.332,407.032Z" transform="translate(-67.318 -261.179)"/><path class="v" d="M255.663,381.646c7.108-12.9,16.454-17.9,16.454-17.9s25.406-7.9,33.831,13.427c8.425,21.457-20.272,87.67-25.143,100.043-4.871,12.505-10.4,16.455-38.174,14.48L219.2,466.288C245.527,445.226,251.056,390.071,255.663,381.646Z" transform="translate(-66.371 -263.832)"/><g transform="translate(152.829 104.519)"><path class="br" d="M242.368,427.453c-1.975,14.348,14.348,28.96,20.4,28.565,9.609-.79,22.51-36.727,32.909-67a76.58,76.58,0,0,0,4.476-22.115,21.937,21.937,0,0,1,5.792,8.82c8.425,21.457-20.272,87.67-25.142,100.043-4.871,12.505-10.4,16.454-38.174,14.48L219.2,464.837C229.863,456.281,237.234,441.933,242.368,427.453Z" transform="translate(-219.2 -366.9)"/></g><path class="bs" d="M260.159,393.544,215.93,389.2l-44.23,6.977,46.2,2.633,42.65-3.554Z" transform="translate(-81.398 -255.326)"/><path class="bt" d="M200.3,390.253l6.582-1.053,44.23,4.344.395,1.711-6.713.527Z" transform="translate(-72.35 -255.326)"/><path class="v" d="M208.221,336.3l11.189,69.636-44.23,6.977L160.7,350.78Z" transform="translate(-84.878 -272.062)"/><path class="bu" d="M208.221,336.3,175.18,412.912,160.7,350.78Z" transform="translate(-84.878 -272.062)"/><path class="bs" d="M193.9,337.353l3.817-1.053,11.189,69.636-4.476.79Z" transform="translate(-74.374 -272.062)"/><path class="v" d="M263.634,442.6c27.775-25.142,29.486-27.775,32.777-40.544,3.159-12.769,2.9-37.648-9.215-35.937s-25.142,44.493-34.752,45.678C242.836,413.114,248.364,456.422,263.634,442.6Z" transform="translate(-57.36 -262.654)"/><path class="br" d="M252.454,408.671c6.055-.79,13.559-18.3,21.193-31.329,4.476-7.635-10.531,30.671-20.14,31.856-7.5.921-5.792,27.907,2.764,32.646C246.794,438.816,244.556,409.593,252.454,408.671Z" transform="translate(-57.37 -259.396)"/><path class="br" d="M263.52,420.631c27.775-25.143,29.486-30.145,32.646-42.782.263-1.185.527-2.633.79-3.949,1.843,7.9,1.053,18.692-.658,25.8-3.159,12.769-5,17.639-32.646,42.782-13.164,11.847-19.087-19.877-14.48-30.013C251.673,420.894,256.544,426.949,263.52,420.631Z" transform="translate(-57.378 -260.166)"/><path class="t" d="M234,400.617c-16.981-6.582-52-5.4-52-5.4l4.344,6.055s40.544,34.094,50.417,30.408C247.028,427.866,240.973,403.25,234,400.617Z" transform="translate(-78.139 -253.448)"/><path class="u" d="M269.4,406.781c-9.215-15.665-29.75-29.881-29.75-29.881l-9.346,6.45s21.457,57.13,31.066,59.236S273.082,412.968,269.4,406.781Z" transform="translate(-62.859 -259.217)"/><path class="t" d="M261.6,421.686c4.607,1.053,7.5-5.792,8.82-13.822,2.238,9.741-.395,35.015-8.951,33.172C251.857,438.93,230.4,381.8,230.4,381.8S255.148,420.238,261.6,421.686Z" transform="translate(-62.827 -257.667)"/><g transform="translate(162.692)"><path class="bv" d="M227.263,303.4s-.132.921-.263,2.238A8.962,8.962,0,0,1,227.263,303.4Z" transform="translate(-226.595 -282.47)"/><path class="bb" d="M227.1,310.8a9.067,9.067,0,0,0,.921,4.212c1.711,3.423,11.057,4.739,6.45-10.4s8.425-17.113,8.425-17.113-8.293,7.108,1.316,11.057,5-8.425,14.743-10,12.769,13.3,12.769,13.3,3.949-9.083,17.639-3.949c13.69,5.265,4.739,16.06,4.739,16.06s12.769,2.106,13.69,19.087-8.425,10.663-8.425,10.663c1.58,10.4-7.372,15.138-7.372,15.138s-2.369,4.344-3.949,15.4l-38.833-35.542C224.728,345.42,226.176,318.829,227.1,310.8Z" transform="translate(-226.692 -287.5)"/><path class="bc" d="M254.49,331.058c17.244-8.161,33.3-18.166,30.013-35.278l-.395-1.58a31.592,31.592,0,0,1,5,1.316c13.69,5.265,4.739,16.06,4.739,16.06s12.769,2.106,13.69,19.087-8.425,10.663-8.425,10.663c1.58,10.4-7.372,15.138-7.372,15.138s-2.369,4.344-3.949,15.4l-38.833-35.542c-12.9,3.554-18.561-1.975-21.062-9.346C233.165,334.481,237.9,338.956,254.49,331.058Z" transform="translate(-226.31 -285.38)"/></g><path class="u" d="M274.919,337.4l8.688,35.41c-8.82,1.316-16.718,6.055-23.826,13.822L255.7,348.721Z" transform="translate(-54.823 -271.714)"/><path class="y" d="M208.035,398.507l10.4-4.607c22.51,6.055,58.973,79.9,58.973,79.9s-9.215,13.032-19.614,13.032H231.466l-13.559-63.317L189.869,484.6l-2.369-.922C187.5,483.544,202.507,411.144,208.035,398.507Z" transform="translate(-76.399 -253.839)"/><path class="bq" d="M218.908,400.5s14.085,8.82,25.8,16.454c16.981,23.563,32.514,54.761,32.514,54.761s-9.215,13.032-19.614,13.032H231.282L217.723,421.43l-28.038,61.079-1.185-.395Z" transform="translate(-76.083 -251.751)"/><g transform="translate(22.374 232.067)"><path class="bw" d="M338.1,465.4H224.5c-20.14,0-25.932,42.782-5.792,42.782h113.6C322.043,502.39,323.491,472.245,338.1,465.4Z" transform="translate(-92.86 -463.287)"/><path class="n" d="M253.448,463.8H138.53c-22.773-.658-25.406,46.336-2.5,46.994H250.947C231.334,510.269,233.835,463.275,253.448,463.8Z" transform="translate(-120.096 -463.795)"/><g transform="translate(18.302 0.007)"><path class="n" d="M361.487,463.8H136.521l-.921,4.476H360.566a3.157,3.157,0,0,0,3.028-2.238h0A2.035,2.035,0,0,0,361.487,463.8Z" transform="translate(-133.494 -463.8)"/><path class="n" d="M359.624,496.6H135.053L134,500.417H358.571a3.117,3.117,0,0,0,3.028-1.975h0C361.994,497.39,361.072,496.6,359.624,496.6Z" transform="translate(-134 -453.423)"/></g><g transform="translate(125.717 0.007)"><path class="bx" d="M336.879,463.8H216.827l-.527,4.476H336.352c.79,0,1.448-1.053,1.58-2.238h0C338.063,464.853,337.668,463.8,336.879,463.8Z" transform="translate(-215.379 -463.8)"/><path class="bx" d="M335.915,496.6H216.127l-.527,3.817H335.389c.79,0,1.448-.921,1.58-1.975h0C337.1,497.39,336.574,496.6,335.915,496.6Z" transform="translate(-215.6 -453.423)"/></g><path class="bx" d="M257.348,466.515H142.43c-22.773-.526-25.406,39.491-2.5,40.017H254.847C227.072,504.689,229.573,464.672,257.348,466.515Z" transform="translate(-118.863 -462.954)"/><path class="f" d="M251.349,467.6l-101.491.527c-20.4-.527-22.641,36.858-2.238,37.385H250.428C232.92,504.986,233.841,467.075,251.349,467.6Z" transform="translate(-115.891 -462.592)"/><path class="v" d="M234.633,471.4H153.809c-16.06-.395-17.771,27.907-1.711,28.3h80.825C219.1,499.308,220.811,471.138,234.633,471.4Z" transform="translate(-113.523 -461.39)"/></g><g transform="translate(5.594 278.279)"><path class="af" d="M277.095,498.9H114.919c-10,0-10.136,53.181-.132,53.181H276.963C263.931,552.081,264.063,498.9,277.095,498.9Z" transform="translate(-107.35 -498.9)"/><path class="f" d="M356.584,503.7H240.217c-20.535,0-20.667,40.676-.132,40.676H356.452C345.131,538.847,342.5,510.15,356.584,503.7Z" transform="translate(-70.209 -497.381)"/><path class="v" d="M260.055,534.284c-15.928,0-15.8-24.484.132-24.484H341.8c-3.159,7.24-2.633,17.244.527,24.484Z" transform="translate(-62.798 -495.452)"/><path class="by" d="M356.237,498.9H222.1v9.346H356.237c1.711,0,3.159-2.106,3.159-4.739h0C359.4,501.006,357.948,498.9,356.237,498.9Z" transform="translate(-71.047 -498.9)"/><path class="by" d="M356.137,532.2H222v9.346H356.137c1.711,0,3.159-2.106,3.159-4.739h0C359.3,534.306,357.848,532.2,356.137,532.2Z" transform="translate(-71.079 -488.365)"/><path class="by" d="M242.962,552.081H220.584c-7.767-10-7.635-43.045.132-53.181h22.378C230.062,498.9,229.93,552.081,242.962,552.081Z" transform="translate(-73.349 -498.9)"/><g transform="translate(14.283 5.002)"><path class="f" d="M118.2,524.552c0-10.136,1.711-21.852,6.319-21.852H240.227v1.975c-3.554,0-6.187,8.556-6.187,19.877,0,11.189,2.633,19.614,6.055,19.614v1.975H124.387C119.78,546.008,118.2,534.424,118.2,524.552Zm114.128-.132c0-8.161,1.316-16.323,4.344-19.877H124.519c-2.5,0-4.607,8.951-4.607,19.877,0,12.242,2.238,19.482,4.476,19.482H236.541C233.645,540.48,232.328,532.45,232.328,524.42Z" transform="translate(-118.2 -502.7)"/></g></g><path class="bz" d="M173.2,465.1h22.115s3.028-3.554-.79-5.529C190.576,457.728,173.2,465.1,173.2,465.1Z" transform="translate(-80.923 -233.157)"/><path class="bz" d="M103.1,451.1l10.4,19.482s4.607,1.053,4.476-3.291S103.1,451.1,103.1,451.1Z" transform="translate(-103.1 -235.743)"/><path class="k" d="M261.452,402.591c-8.425-1.843-11.321-10.663-11.452-21.852a20.75,20.75,0,0,1,4.212-2.5A42.511,42.511,0,0,1,260,373.1l-2.633-24.484,19.35-11.321,8.688,35.41h-.132a20.4,20.4,0,0,1,4.212,2.633c2.633.658,4.476,3.028,5.792,6.055C281.856,384.162,273.563,405.224,261.452,402.591Z" transform="translate(-56.627 -271.745)"/><path class="u" d="M275.741,317.418c6.45,25.932,2.369,50.811,2.369,50.811s-17.639,10.663-28.433,10.794c0,0-10-41.465-6.055-57.92S274.425,312.285,275.741,317.418Z" transform="translate(-58.936 -280.034)"/><path class="bc" d="M266.389,351.976c-1.975-23.168-3.423-38.306,3.686-34.752,7.108,3.423,4.607,29.618,4.607,29.618Z" transform="translate(-51.953 -278.26)"/><path class="ca" d="M244.306,335.13c-.132-1.58.263-3.028,1.053-3.028.79-.132,1.58,1.185,1.711,2.764s-.263,3.028-1.053,3.028C245.359,338.026,244.569,336.709,244.306,335.13Z" transform="translate(-58.436 -273.392)"/><path class="ca" d="M253.506,333.83c-.132-1.58.263-3.028,1.053-3.028.79-.132,1.58,1.185,1.711,2.764s-.263,3.028-1.053,3.028C254.427,336.726,253.638,335.409,253.506,333.83Z" transform="translate(-55.525 -273.804)"/><path class="v" d="M237.4,336.818l3.291,11.847,26.2-2.633.527-10.663,19.087-2.9,4.607,5.792,3.817-3.423L289,330.5Z" transform="translate(-60.613 -273.896)"/><path class="u" d="M246.6,335.6l-7.9,1.053,2.5,8.82,5.792-.79Z" transform="translate(-60.201 -272.283)"/><path class="u" d="M246.6,335.4l-7.9,1.053,2.5,8.951,5.792-.79Z" transform="translate(-60.201 -272.346)"/><path class="cb" d="M246.7,344.425l-1.975.263-5.924-8.425,2.5-.263Z" transform="translate(-60.17 -272.157)"/><path class="u" d="M269.766,334.907c2.238-6.187,10.926-4.871,9.346-.263s-7.9,13.032-9.609,11.716S269.108,336.618,269.766,334.907Z" transform="translate(-50.723 -273.828)"/><path class="u" d="M246.745,336.6c-.263-.132-4.081,15.8-4.344,17.244s8.951-1.448,8.951-1.448S247.535,337,246.745,336.6Z" transform="translate(-59.032 -271.967)"/><path class="ai" d="M270.944,335.675c1.316-3.554,6.187-2.764,5.4-.132-.921,2.633-4.607,7.5-5.529,6.713S270.549,336.728,270.944,335.675Z" transform="translate(-50.19 -273.016)"/><path class="u" d="M270.708,337.861c.79-2.238,3.949-1.711,3.423-.132-.527,1.711-2.9,4.739-3.554,4.212C269.918,341.547,270.445,338.519,270.708,337.861Z" transform="translate(-50.218 -272.043)"/><path class="u" d="M246.8,335.711l2.633,9.609,12.505-1.58L262.6,334Z" transform="translate(-57.639 -272.789)"/><path class="cb" d="M248,335.358l5.265-.658,8.03,8.82-5.265.658Z" transform="translate(-57.259 -272.568)"/><path class="t" d="M246.745,336.6a4.772,4.772,0,0,1,.658,1.58c-1.185,4.607-3.291,13.427-3.423,14.48s4.607-.132,7.24-.921a2.3,2.3,0,0,1,.132.658s-9.215,2.764-8.951,1.448C242.665,352.4,246.482,336.337,246.745,336.6Z" transform="translate(-59.032 -271.967)"/><path class="ca" d="M243.406,338.891c-.79.132-1.711-1.053-2.106-2.764l3.554-.527C244.854,337.443,244.328,338.759,243.406,338.891Z" transform="translate(-59.379 -272.283)"/><path class="ca" d="M254.538,338.481c-1.053.132-1.975-1.448-2.238-3.686l3.949-.395C256.249,336.638,255.459,338.349,254.538,338.481Z" transform="translate(-55.899 -272.663)"/><path class="bb" d="M265.976,330.961a87.676,87.676,0,0,1-16.718-1.185L248.6,322.8s15.27,2.633,16.586,3.949S265.976,330.961,265.976,330.961Z" transform="translate(-57.069 -276.332)"/><path class="bb" d="M240.081,332.741a29.13,29.13,0,0,0,9.478-2.764L248.9,323s-8.425,4.081-8.951,5.529C239.422,329.845,240.081,332.741,240.081,332.741Z" transform="translate(-59.871 -276.269)"/><path class="cc" d="M248.1,351.586l13.953-3.686s.658,8.556-6.319,9.873S248.1,351.586,248.1,351.586Z" transform="translate(-57.228 -268.392)"/><path class="cd" d="M249.558,353.96a6.185,6.185,0,0,1-.658-2.5l11.979-3.159a8.631,8.631,0,0,1-.263,2.764Z" transform="translate(-56.975 -268.265)"/><path class="bs" d="M180.748,372.273c1.711-.263,2.764-3.028,2.238-6.055a7.8,7.8,0,0,0-1.58-3.817c1.185.658,2.238,2.5,2.633,4.739.527,3.028-.527,5.792-2.238,6.055a3.024,3.024,0,0,1-2.5-1.185A1.828,1.828,0,0,0,180.748,372.273Z" transform="translate(-78.993 -263.805)"/><path class="bt" d="M179.851,359.907c1.711-.263,3.423,1.316,4.607,3.817-1.053-1.58-2.369-2.5-3.686-2.37-2.369.395-3.686,4.212-3.028,8.556a13.034,13.034,0,0,0,1.053,3.423,12.55,12.55,0,0,1-1.843-4.871C176.165,364.119,177.482,360.3,179.851,359.907Z" transform="translate(-79.808 -264.602)"/><path class="t" d="M215.631,378.731c-.527,3.817.658,6.319,1.843,6.713,1.053.395,4.739-1.053,5.4-2.238S216.026,375.309,215.631,378.731Z" transform="translate(-67.54 -258.943)"/><path class="u" d="M216.5,376.8c.263,7.24,1.185,7.9,2.633,8.556s5.66-.263,6.187-1.448-.263-3.949-1.448-3.686a13.354,13.354,0,0,1-2.5.263Z" transform="translate(-67.225 -259.249)"/><path class="u" d="M219.674,375.648c1.975-2.9,16.718-2.764,24.616,2.9l-8.03,8.03c-2.633-4.212-9.478-3.949-13.822-3.554S217.7,378.544,219.674,375.648Z" transform="translate(-66.581 -260.203)"/><path class="u" d="M218.9,377.9c.263,7.24,1.185,7.9,2.633,8.556s5.66-.263,6.187-1.448-.263-3.949-1.448-3.686a13.352,13.352,0,0,1-2.5.263Z" transform="translate(-66.465 -258.901)"/><path class="u" d="M225.054,374.1c-5,.921-8.556,2.764-10.136,4.607a22.347,22.347,0,0,0-3.817,7.5c-.132,1.053,2.764,2.369,3.423.921s2.5-5.529,3.028-5.792c.527-.132,5.529-2.369,5.792-2.238S225.054,374.1,225.054,374.1Z" transform="translate(-68.934 -260.103)"/><path class="t" d="M193.745,405c-11.057-4.739-17.113-2.633-19.745-10.4l16.849.658Z" transform="translate(-80.67 -253.618)"/><path class="t" d="M181.238,399.734c-3.686-2.106-4.607-5.134-4.607-7.108s-3.028-2.5-3.028-.527a9.986,9.986,0,0,0,1.448,5.4C175.841,398.681,181.238,399.734,181.238,399.734Z" transform="translate(-80.8 -254.802)"/><path class="t" d="M184.435,400.034c-3.686-2.106-4.607-5.134-4.607-7.108s-3.028-2.5-3.028-.527a10.881,10.881,0,0,0,1.448,5.4C179.038,398.981,184.435,400.034,184.435,400.034Z" transform="translate(-79.784 -254.708)"/><path class="t" d="M187.838,400.334c-3.686-2.106-4.607-5.134-4.607-7.108s-3.028-2.5-3.028-.527a9.986,9.986,0,0,0,1.448,5.4C182.441,399.281,187.838,400.334,187.838,400.334Z" transform="translate(-78.712 -254.613)"/></g></g><g transform="translate(1004.234 526.401)"><g transform="translate(78.85)"><path class="j" d="M856.5,425.019a40.232,40.232,0,1,0,55.024,14.48A40.208,40.208,0,0,0,856.5,425.019Zm30.013,51.338a19.145,19.145,0,1,1,6.845-26.2A19.1,19.1,0,0,1,886.512,476.357Z" transform="translate(-819.641 -402.378)"/><g transform="translate(20.798 3.686)"><path class="j" d="M894.116,464.7,869.5,479.048l17.244,18.824,15.27-8.82Z" transform="translate(-830.009 -391.774)"/><path class="j" d="M847.4,442.341l24.484-14.348L854.638,409.3,839.5,418.12Z" transform="translate(-839.5 -409.3)"/></g><g transform="translate(3.686 20.667)"><path class="j" d="M859.672,476.784,845.324,452.3,826.5,469.544l8.82,15.138Z" transform="translate(-826.5 -412.678)"/><path class="j" d="M882,430.1l14.348,24.616,18.692-17.244-8.819-15.27Z" transform="translate(-808.942 -422.2)"/></g><g transform="translate(0 33.962)"><path class="j" d="M846.473,460.865l7.24-27.512L828.176,432.3,823.7,449.149Z" transform="translate(-823.7 -432.3)"/><path class="j" d="M894.34,445.2l-7.24,27.512,25.537,1.053,4.476-16.981Z" transform="translate(-803.643 -428.219)"/></g><g transform="translate(33.962)"><path class="j" d="M862.4,429.273l27.512,7.24,1.053-25.537L874.116,406.5Z" transform="translate(-845.419 -406.5)"/><path class="j" d="M878.065,477.14l-27.512-7.24L849.5,495.437l16.981,4.476Z" transform="translate(-849.5 -386.443)"/></g></g><g transform="translate(0 33.436)"><path class="j" d="M800.2,440.527a25.909,25.909,0,1,0,23.431,28.17A25.95,25.95,0,0,0,800.2,440.527Zm-3.554,38.043A12.359,12.359,0,1,1,810.07,467.38,12.294,12.294,0,0,1,796.643,478.57Z" transform="translate(-761.232 -429.206)"/><g transform="translate(25.669)"><path class="j" d="M801.466,476.011,783.3,474.3l1.975,16.323,11.321,1.053Z" transform="translate(-783.3 -418.486)"/><path class="j" d="M786.1,447.565l18.3,1.711-2.106-16.323L791.1,431.9Z" transform="translate(-782.414 -431.9)"/></g><g transform="translate(0 25.669)"><path class="j" d="M779.465,469.566l1.711-18.166-16.323,1.975L763.8,464.564Z" transform="translate(-763.8 -451.4)"/><path class="j" d="M807.88,454.2l-1.58,18.166,16.323-1.975.922-11.189Z" transform="translate(-750.355 -450.514)"/></g><g transform="translate(9.083 5.134)"><path class="j" d="M778.335,457.52l14.085-11.584L779.388,435.8l-8.688,7.24Z" transform="translate(-770.7 -435.8)"/><path class="j" d="M810.185,467,796.1,478.716,809,488.852l8.688-7.24Z" transform="translate(-762.664 -425.93)"/></g><g transform="translate(5.134 9.083)"><path class="j" d="M799,446.3l11.716,14.085,10-12.9-7.108-8.688Z" transform="translate(-757.798 -438.8)"/><path class="j" d="M789.552,478.185,777.836,464.1,767.7,477.132l7.24,8.688Z" transform="translate(-767.7 -430.796)"/></g></g></g><g transform="translate(178.01 66.592)"><path class="j" d="M227,139H193.7l9.083,32.646h15.138Z" transform="translate(-117.933 -31.318)"/><path class="j" d="M211.167,161.2H203.4l1.053,6.055h5.66Z" transform="translate(-114.864 -24.295)"/><path class="j" d="M214.056,86.9c-18.561,0-31.856,18.166-31.856,40.676s13.3,40.676,31.856,40.676,31.856-18.166,31.856-40.676S232.617,86.9,214.056,86.9Zm-7.24,75.822c-16.06-3.159-24.221-21.588-20.4-40.939C190.23,102.3,205.1,89.138,221.164,92.3s24.221,21.588,20.4,40.939C237.882,152.718,222.876,166.013,206.816,162.722Z" transform="translate(-121.571 -47.8)"/><g transform="translate(81.032 77.274)"><path class="j" d="M216.129,156.839l-3.423-.132,3.686-31.988a24.478,24.478,0,0,1-12.374,0l4.739,30.54-3.686.79L197.7,116.558l3.686,1.58c.132,0,9.873,3.949,16.586,0l3.686-2.238Z" transform="translate(-197.7 -115.9)"/></g><path class="j" d="M169.619,154.109c4.212-3.423,13.427-12.637,11.584-14.348s-13.427,5.66-17.639,8.951c-4.212,3.423-6.45,7.108-4.607,8.82S165.407,157.532,169.619,154.109Z" transform="translate(-129.131 -31.157)"/><path class="j" d="M260.665,142.128c-4.739-2.633-17.771-8.161-19.614-6.45s8.688,9.215,13.559,11.847c4.739,2.633,9.873,3.686,11.716,2.106S265.4,144.76,260.665,142.128Z" transform="translate(-103.021 -32.471)"/><path class="j" d="M278.325,111.2c-4.476-.527-15.928-.79-16.323.921s10.531,4.212,15.007,4.739,8.425-.132,8.82-1.843C286.355,113.17,282.933,111.722,278.325,111.2Z" transform="translate(-96.328 -40.24)"/><path class="j" d="M194.455,64.573c.658,3.949,3.423,13.822,5.4,13.69s1.711-10.136,1.053-14.085-2.369-7.108-4.344-6.977C194.586,57.2,193.8,60.492,194.455,64.573Z" transform="translate(-117.766 -57.197)"/><path class="j" d="M146.486,122.055c5.134-.527,17.244-3.423,16.586-5.66s-13.559-2.369-18.692-1.711c-5.134.527-8.82,2.369-8.161,4.739C136.876,121.66,141.352,122.713,146.486,122.055Z" transform="translate(-136.142 -39.12)"/><path class="j" d="M251.462,65.064c-3.949,2.764-12.769,10.794-10.794,12.374,1.843,1.711,12.9-4.212,16.849-7.108,3.949-2.764,6.055-6.055,4.212-7.767C259.756,60.984,255.412,62.3,251.462,65.064Z" transform="translate(-103.164 -55.714)"/><path class="j" d="M145.123,78.7c5,3.817,18.034,12.242,19.614,10.531,1.843-1.843-11.189-14.217-17.113-18.956-6.055-4.739-11.057-6.45-11.321-3.291C136.04,70.014,140.12,74.753,145.123,78.7Z" transform="translate(-136.095 -54.608)"/></g><g transform="translate(140.702 336.187)"><rect class="a" width="92.277" height="54.629"/><path class="a" d="M144,297.185l8.556,32.646L160.06,296Z" transform="translate(-96.348 -251.244)"/></g></g></svg>