<svg xmlns="http://www.w3.org/2000/svg" width="178.465" height="83.268" viewBox="0 0 178.465 83.268"><defs><style>.a{fill:#1e4fad;}.b,.d{fill:#fff;}.b{fill-rule:evenodd;}.c{fill:#fc4d3f;}</style></defs><g transform="translate(-71.849 -113.422)"><g transform="translate(181.778 120.697)"><path class="a" d="M228.215,153.258a29.427,29.427,0,0,1-22.61,28.616,26.749,26.749,0,0,1-6.948.824,11.424,11.424,0,0,1-2-.118,29.477,29.477,0,1,1,31.559-29.322Z" transform="translate(-164.507 -118.872)"/><path class="a" d="M205.591,120.189a36.174,36.174,0,0,0-6.241-.589,34.6,34.6,0,0,0-13.425,2.708.608.608,0,0,0-.353.824.648.648,0,0,0,.589.353h.236A32.629,32.629,0,0,1,199.35,120.9a34.59,34.59,0,0,1,6.006.589.519.519,0,0,0,.707-.471A.67.67,0,0,0,205.591,120.189Zm19.548,11.069a33.633,33.633,0,0,0-6.123-5.417.589.589,0,1,0-.707.942,35.774,35.774,0,0,1,5.888,5.3.893.893,0,0,0,.471.236.433.433,0,0,0,.353-.118A.623.623,0,0,0,225.139,131.258Zm-53.463,3.651a.568.568,0,0,0-.824.118,27.337,27.337,0,0,0-2.591,4.828.608.608,0,0,0,.353.824h.236a.648.648,0,0,0,.589-.353,21.968,21.968,0,0,1,2.591-4.593A1.272,1.272,0,0,0,171.677,134.909Zm59.233,5.652a27.337,27.337,0,0,0-2.591-4.828.728.728,0,0,0-.824-.236.781.781,0,0,0-.236.824,35.888,35.888,0,0,1,2.473,4.71.648.648,0,0,0,.589.353h.236C230.91,141.15,231.145,140.8,230.91,140.561Zm-63.826,4a.519.519,0,0,0-.707.471,37.587,37.587,0,0,0-1.178,8.125.556.556,0,0,0,.589.589h0a.556.556,0,0,0,.589-.589,33.469,33.469,0,0,1,1.178-7.772A.991.991,0,0,0,167.084,144.565Zm66.063,8.832a.556.556,0,0,0-.589.589,32.616,32.616,0,0,1-5.535,18.253.568.568,0,0,0,.118.824.433.433,0,0,0,.353.118.612.612,0,0,0,.471-.236,33.9,33.9,0,0,0,5.77-18.959A.631.631,0,0,0,233.147,153.4Zm-51.932,28.144a33.912,33.912,0,0,1-12.247-14.72.634.634,0,0,0-1.178.471,33.987,33.987,0,0,0,12.718,15.191.433.433,0,0,0,.353.118.612.612,0,0,0,.471-.236A.582.582,0,0,0,181.215,181.541Zm36.623.707c-.118-.353-.589-.353-.824-.236a30.982,30.982,0,0,1-7.183,3.415.608.608,0,0,0-.353.824.782.782,0,0,0,.589.471h.236a30.584,30.584,0,0,0,7.419-3.533A.945.945,0,0,0,217.838,182.248Zm-13.189,4.357a40.262,40.262,0,0,1-5.3.471.589.589,0,1,0,0,1.178,27.277,27.277,0,0,0,5.417-.471c.353-.118.589-.353.471-.707C205.356,186.841,205,186.605,204.649,186.605Z" transform="translate(-165.2 -119.6)"/><path class="b" d="M202.551,145.923c0,1.884-.118,6.124-.118,6.124h8.479c-.353,2.944-.707,5.77-1.06,8.6h-7.3v19.43a26.749,26.749,0,0,1-6.948.824,11.424,11.424,0,0,1-2-.118V160.525h-7.3v-8.6h7.3v-5.77a31.034,31.034,0,0,1,.236-3.3,9.373,9.373,0,0,1,3.886-6.359,11.293,11.293,0,0,1,6.359-2c1.531,0,3.062,0,4.475.118a17.572,17.572,0,0,1,2.473.236v7.654h-4.946C204.2,142.625,202.669,143.332,202.551,145.923Z" transform="translate(-161.453 -116.954)"/></g><g transform="translate(71.849 113.422)"><circle class="c" cx="29.44" cy="29.44" r="29.44" transform="translate(0 41.634) rotate(-45)"/><path class="c" d="M112.368,188.236a.589.589,0,1,1,0-1.178,26.876,26.876,0,0,0,5.3-.471c.353,0,.707.118.707.471s-.118.707-.471.707a29.282,29.282,0,0,1-5.535.471Zm10.6-1.649a.6.6,0,0,1-.589-.471.718.718,0,0,1,.353-.824,33.438,33.438,0,0,0,7.183-3.415.606.606,0,1,1,.589,1.06,42.842,42.842,0,0,1-7.419,3.533A.115.115,0,0,1,122.966,186.587Zm-29.2-3.886a.433.433,0,0,1-.353-.118,34.751,34.751,0,0,1-12.718-15.191.634.634,0,0,1,1.178-.471,33.131,33.131,0,0,0,12.247,14.72.582.582,0,0,1,.118.824A.612.612,0,0,1,93.762,182.7Zm46.633-9.538a.433.433,0,0,1-.353-.118.582.582,0,0,1-.118-.824,32.616,32.616,0,0,0,5.535-18.253.589.589,0,1,1,1.178,0,34.741,34.741,0,0,1-5.652,18.959A.9.9,0,0,1,140.395,173.163Zm-61.706-19.43h0a.556.556,0,0,1-.589-.589,37.586,37.586,0,0,1,1.178-8.125.6.6,0,0,1,1.178.236,35.488,35.488,0,0,0-1.178,7.772C79.278,153.5,79.042,153.732,78.689,153.732Zm64.65-12.365a.648.648,0,0,1-.589-.353,35.886,35.886,0,0,0-2.473-4.71.606.606,0,0,1,1.06-.589,38.069,38.069,0,0,1,2.591,4.828.608.608,0,0,1-.353.824Zm-61.706-.707H81.4a.608.608,0,0,1-.353-.824,38.071,38.071,0,0,1,2.591-4.828.589.589,0,1,1,.942.707,35.29,35.29,0,0,0-2.591,4.593C82.1,140.543,81.868,140.661,81.633,140.661Zm55.936-8.361a.893.893,0,0,1-.471-.236,35.775,35.775,0,0,0-5.888-5.3.589.589,0,0,1,.707-.942,33.634,33.634,0,0,1,6.123,5.417.569.569,0,0,1,0,.824A.612.612,0,0,1,137.568,132.3Zm-38.39-8.714a.648.648,0,0,1-.589-.353.608.608,0,0,1,.353-.824,34.6,34.6,0,0,1,13.425-2.708,36.174,36.174,0,0,1,6.241.589c.353.118.589.353.471.707s-.353.589-.707.471a32.773,32.773,0,0,0-18.959,2A.365.365,0,0,1,99.179,123.586Z" transform="translate(-70.739 -112.308)"/><g transform="translate(21.21 28.236)"><path class="d" d="M103.332,148.116v5.417h7.183a5.715,5.715,0,0,1-2.591,4,7.65,7.65,0,0,1-3.886,1.3,6.352,6.352,0,0,1-2.944-.353,8.181,8.181,0,0,1-5.535-6.948,8.729,8.729,0,0,1,.118-2.473,7.87,7.87,0,0,1,8.832-6.123,6.719,6.719,0,0,1,3.886,1.884l3.886-3.886a28.246,28.246,0,0,0-2.355-1.766,13.594,13.594,0,0,0-6.359-1.766h-1.3a7.394,7.394,0,0,0-2.237.353,12.731,12.731,0,0,0-7.183,4.593A13.138,13.138,0,0,0,89.907,150a12.982,12.982,0,0,0,5.535,11.658,13.969,13.969,0,0,0,7.183,2.591,10.816,10.816,0,0,0,4.357-.471,11.536,11.536,0,0,0,6.595-4.357,14.259,14.259,0,0,0,2.355-11.3Z" transform="translate(-89.861 -137.4)"/><path class="d" d="M127.736,147.293h-4.593V142.7h-3.651v4.593H114.9v3.768h4.593v4.593h3.651v-4.593h4.71v-3.768Z" transform="translate(-85.414 -136.459)"/></g></g></g></svg>